<?xml version="1.0" encoding="utf-8"?>
<svg viewBox="0 0 724.161 500" xmlns="http://www.w3.org/2000/svg">
  <rect x="-0.709" y="-0.196" width="725.659" height="501.538"/>
  <g transform="matrix(0.390658, 0, 0, 0.297444, 25.116653, 46.874695)">
    <path d="m377.53,189.821v-114.948c11.234-1.248 20-10.796 20-22.358 0-12.407-10.093-22.5-22.5-22.5h-100c-12.407,0-22.5,10.093-22.5,22.5 0,11.561 8.766,21.11 20,22.358v114.95c-22.675,8.812-42.852,23.265-58.606,42.033-2.664,3.173-2.25,7.903 0.922,10.566 1.406,1.18 3.117,1.756 4.818,1.756 2.14,0 4.265-0.911 5.748-2.678 15.171-18.073 34.906-31.682 57.072-39.356 3.021-1.046 5.046-3.891 5.046-7.087v-120.042h42.5c4.142,0 7.5-3.358 7.5-7.5s-3.358-7.5-7.5-7.5h-55c-4.136,0-7.5-3.364-7.5-7.5s3.364-7.5 7.5-7.5h100c4.136,0 7.5,3.364 7.5,7.5s-3.364,7.5-7.5,7.5h-15c-4.142,0-7.5,3.358-7.5,7.5s3.358,7.5 7.5,7.5h2.5v120.041c0,3.196 2.026,6.042 5.046,7.087 52.309,18.11 87.454,67.488 87.454,122.871 0,71.682-58.318,130-130,130-16.899,0-33.349-3.202-48.892-9.516-3.836-1.56-8.212,0.288-9.771,4.125-1.559,3.837 0.289,8.212 4.126,9.771 17.345,7.046 35.693,10.619 54.537,10.619 79.953,0 145-65.047 145-145 5.68434e-14-59.971-36.952-113.631-92.5-135.192z" fill="#FFFFFF"/>
    <circle cx="380.923" cy="351.39" r="7.5" fill="#FFFFFF"/>
    <circle cx="350.923" cy="381.39" r="7.5" fill="#FFFFFF"/>
    <path d="m282.67,415.62c-3.749-1.755-8.215-0.14-9.973,3.611-1.757,3.751-0.14,8.216 3.611,9.973 15.316,7.174 31.708,10.812 48.722,10.812 63.411,0 115-51.589 115-115 0-20.213-5.323-40.098-15.394-57.506-1.528-2.641-4.501-4.096-7.525-3.672l-2.73,.38c-0.342,0.047-0.682,0.119-1.014,0.213-11.338,3.218-17.453,8.129-22.366,12.075-5.443,4.372-9.04,7.26-19.416,7.26-8.861,0-12.859-3.435-18.393-8.189-6.125-5.262-13.748-11.811-28.167-11.811-14.418,0-22.04,6.549-28.165,11.812-5.533,4.754-9.53,8.188-18.389,8.188-10.375,0-13.97-2.888-19.413-7.26-4.913-3.946-11.027-8.857-22.363-12.075-0.333-0.095-0.672-0.166-1.015-0.213l-2.73-.38c-3.018-0.423-5.984,1.024-7.515,3.655-0.065,0.111-0.128,0.224-0.197,0.352-2.064,3.591-0.826,8.176 2.765,10.24 1.56,0.896 3.306,1.17 4.953,0.898l.125,.018c8.09,2.378 12.219,5.694 16.584,9.201 6.466,5.194 13.153,10.565 28.806,10.565 14.418,0 22.04-6.549 28.165-11.812 5.533-4.754 9.53-8.188 18.389-8.188 8.861,0 12.859,3.435 18.393,8.189 6.125,5.262 13.748,11.811 28.167,11.811 15.654,0 22.341-5.371 28.809-10.564 3.853-3.095 7.52-6.04 13.89-8.325 7.045,13.921 10.747,29.414 10.747,45.139 0,55.14-44.86,100-100,100-14.799-0.002-29.051-3.163-42.361-9.397z" fill="#FFFFFF"/>
    <path d="m181.03,193.796v-148.923c11.234-1.248 20-10.796 20-22.358 0-12.407-10.093-22.5-22.5-22.5h-100c-12.407,0-22.5,10.093-22.5,22.5 0,11.561 8.766,21.11 20,22.358v120.184c0,4.142 3.358,7.5 7.5,7.5s7.5-3.358 7.5-7.5v-120.042h42.5c4.142,0 7.5-3.358 7.5-7.5s-3.358-7.5-7.5-7.5h-55c-4.136,0-7.5-3.364-7.5-7.5s3.364-7.5 7.5-7.5h100c4.136,0 7.5,3.364 7.5,7.5s-3.364,7.5-7.5,7.5h-15c-4.142,0-7.5,3.358-7.5,7.5s3.358,7.5 7.5,7.5h2.5v150.042c0,0.834 0.139,1.663 0.412,2.451l72.889,210.754c4.402,12.728 3.409,24.535-2.795,33.246-6.205,8.71-17.038,13.508-30.505,13.508h-155c-13.467,0-24.301-4.797-30.506-13.508-6.204-8.711-7.197-20.518-2.795-33.245l72.889-210.753c1.354-3.915-0.722-8.186-4.636-9.54-3.914-1.353-8.186,0.722-9.54,4.636l-72.89,210.753c-6.032,17.439-4.343,34.078 4.754,46.85 9.097,12.772 24.27,19.806 42.723,19.806h155c18.453,0 33.626-7.034 42.723-19.806 9.097-12.772 10.786-29.411 4.754-46.85l-72.477-209.563z" fill="#FFFFFF"/>
    <path d="m64.652,348.792c-1.91-1.481-4.419-1.953-6.734-1.263-2.317,0.689-4.161,2.453-4.951,4.738l-21.062,60.899c-2.772,8.016-2.475,14.991 0.837,19.64 3.312,4.649 9.806,7.21 18.288,7.21h155c8.481,0 14.976-2.561 18.287-7.21 3.313-4.649 3.61-11.625 0.837-19.64l-21.063-60.901c-0.79-2.285-2.633-4.048-4.95-4.737-2.317-0.69-4.825-0.219-6.734,1.263-4.091,3.173-7.964,5.601-17.323,5.601-8.86,0-12.859-3.435-18.393-8.189-6.125-5.262-13.748-11.811-28.167-11.811-14.418,0-22.04,6.549-28.165,11.812-5.533,4.754-9.53,8.188-18.39,8.188-9.356-0.002-13.228-2.428-17.317-5.6zm45.483,8.787c5.533-4.754 9.53-8.188 18.389-8.188 8.861,0 12.859,3.435 18.393,8.189 6.125,5.262 13.748,11.811 28.167,11.811 7.84,0 13.484-1.404 17.89-3.379l18.004,52.057c1.064,3.077 1.123,5.092 1.018,5.961-0.787,0.383-2.71,0.986-5.966,0.986h-155c-3.256,0-5.179-0.603-5.966-0.986-0.105-0.869-0.046-2.884 1.018-5.961l18.003-52.055c4.404,1.975 10.047,3.378 17.885,3.378 14.419-0.002 22.041-6.551 28.165-11.813z" fill="#FFFFFF"/>
  </g>
  <g transform="matrix(0.276025, 0, 0, 0.266029, 318.691284, 46.208069)">
    <path d="m462.5,197.5c4.143,0 7.5-3.358 7.5-7.5s-3.357-7.5-7.5-7.5c-96.495,0-175-78.505-175-175 0-4.142-3.357-7.5-7.5-7.5s-7.5,3.358-7.5,7.5c0,104.767 85.233,190 190,190z" fill="#FFFFFF"/>
    <path d="m7.5,272.5c-4.143,0-7.5,3.358-7.5,7.5s3.357,7.5 7.5,7.5c96.495,0 175,78.505 175,175 0,4.142 3.357,7.5 7.5,7.5s7.5-3.358 7.5-7.5c0-104.767-85.233-190-190-190z" fill="#FFFFFF"/>
    <path d="M250,318.333c4.143,0,7.5-3.358,7.5-7.5s-3.357-7.5-7.5-7.5h-7.5V166.667h7.5c4.143,0,7.5-3.358,7.5-7.5   s-3.357-7.5-7.5-7.5h-7.5V90.833h7.5c4.143,0,7.5-3.358,7.5-7.5s-3.357-7.5-7.5-7.5h-7.5V15h7.5c4.143,0,7.5-3.358,7.5-7.5   S254.143,0,250,0h-30c-4.143,0-7.5,3.358-7.5,7.5s3.357,7.5,7.5,7.5h7.5v60.833H220c-4.143,0-7.5,3.358-7.5,7.5s3.357,7.5,7.5,7.5   h7.5v60.833H220c-4.143,0-7.5,3.358-7.5,7.5s3.357,7.5,7.5,7.5h7.5V227.5h-60.833V220c0-4.142-3.357-7.5-7.5-7.5   s-7.5,3.358-7.5,7.5v7.5H90.833V220c0-4.142-3.357-7.5-7.5-7.5s-7.5,3.358-7.5,7.5v7.5H15V220c0-4.142-3.357-7.5-7.5-7.5   S0,215.858,0,220v30c0,4.142,3.357,7.5,7.5,7.5s7.5-3.358,7.5-7.5v-7.5h60.833v7.5c0,4.142,3.357,7.5,7.5,7.5s7.5-3.358,7.5-7.5   v-7.5h60.834v7.5c0,4.142,3.357,7.5,7.5,7.5s7.5-3.358,7.5-7.5v-7.5H227.5v60.833H220c-4.143,0-7.5,3.358-7.5,7.5   s3.357,7.5,7.5,7.5h7.5v60.833H220c-4.143,0-7.5,3.358-7.5,7.5s3.357,7.5,7.5,7.5h7.5V455H220c-4.143,0-7.5,3.358-7.5,7.5   s3.357,7.5,7.5,7.5h30c4.143,0,7.5-3.358,7.5-7.5s-3.357-7.5-7.5-7.5h-7.5v-60.833h7.5c4.143,0,7.5-3.358,7.5-7.5   s-3.357-7.5-7.5-7.5h-7.5v-60.833H250z" fill="#FFFFFF"/>
    <path d="m462.5,212.5c-4.143,0-7.5,3.358-7.5,7.5v7.5h-60.833v-7.5c0-4.142-3.357-7.5-7.5-7.5s-7.5,3.358-7.5,7.5v7.5h-60.834v-7.5c0-4.142-3.357-7.5-7.5-7.5s-7.5,3.358-7.5,7.5v7.5h-38.333c-4.143,0-7.5,3.358-7.5,7.5s3.357,7.5 7.5,7.5h38.333v7.5c0,4.142 3.357,7.5 7.5,7.5s7.5-3.358 7.5-7.5v-7.5h60.834v7.5c0,4.142 3.357,7.5 7.5,7.5s7.5-3.358 7.5-7.5v-7.5h60.833v7.5c0,4.142 3.357,7.5 7.5,7.5s7.5-3.358 7.5-7.5v-30c0-4.142-3.357-7.5-7.5-7.5z" fill="#FFFFFF"/>
  </g>
  <g transform="matrix(0.516238, 0, 0, 0.488136, 218.705185, 234.924438)">
    <g>
      <path d="M471.24,14.054H40.749C18.281,14.054,0,32.332,0,54.803v59.224c0,4.602,3.731,8.332,8.332,8.332    c4.602,0,8.332-3.731,8.332-8.332V54.803c0-13.281,10.805-24.085,24.085-24.085h430.49c13.287,0,24.096,10.805,24.096,24.085    v284.412h-32.462v-103.01c0-16.17-13.155-29.324-29.324-29.324H312.226c-16.17,0-29.324,13.155-29.324,29.324v159.036H40.749    c-13.28,0-24.085-10.805-24.085-24.085v-15.275H263.46c4.602,0,8.332-3.731,8.332-8.332c0-4.602-3.731-8.332-8.332-8.332H16.664    V141.801c0-4.602-3.731-8.332-8.332-8.332C3.731,133.469,0,137.2,0,141.801v229.354c0,22.47,18.281,40.749,40.749,40.749h142.787    l-20.495,47.948h-40.027c-4.602,0-8.332,3.731-8.332,8.332c0,4.602,3.731,8.332,8.332,8.332h45.526h92.856h1.111    c4.602,0,8.332-3.731,8.332-8.332c0-4.602-3.731-8.332-8.332-8.332h-1.111h-80.233l14.241-33.317h87.497v42.086    c0,16.17,13.155,29.324,29.324,29.324h121.323c16.17,0,29.324-13.155,29.324-29.324V355.879h32.462v15.275    c0,9.701-5.778,18.413-14.72,22.196c-4.238,1.793-6.221,6.681-4.428,10.919c1.344,3.18,4.43,5.089,7.678,5.089    c1.082,0,2.183-0.212,3.242-0.66c15.121-6.396,24.892-21.132,24.892-37.543V54.803C512,32.332,493.715,14.054,471.24,14.054z     M299.564,236.205L299.564,236.205c0.001-6.981,5.68-12.66,12.661-12.66h121.323c6.981,0,12.66,5.679,12.66,12.66V430.18H299.564    V236.205z M446.21,468.623c0,6.98-5.679,12.66-12.661,12.66H312.226c-6.981,0-12.66-5.679-12.66-12.66v-21.779H446.21V468.623z" fill="#FFFFFF"/>
    </g>
  </g>
  <g transform="matrix(0.872266, 0, 0, 0.882415, 188.738327, 131.175812)">
    <g>
      <path d="M262.924,368.955c-3.987-6.049-13.707-4.123-15.098,3c-0.672,3.44,0.933,7.043,3.962,8.811    c3.025,1.765,6.959,1.424,9.621-0.855C264.589,377.189,265.22,372.441,262.924,368.955z" fill="#FFFFFF"/>
    </g>
  </g>
  <g transform="matrix(0.629075, 0, 0, 0.861519, 173.946045, 152.382324)">
    <g>
      <path d="M395.662,233.543h-45.549c-4.602,0-8.332,3.731-8.332,8.332c0,4.602,3.731,8.332,8.332,8.332h45.549    c4.602,0,8.332-3.731,8.332-8.332C403.994,237.273,400.264,233.543,395.662,233.543z" fill="#FFFFFF"/>
    </g>
  </g>
  <g transform="matrix(0.9999999999999999, 0, 0, 0.9999999999999999, 61.78599270457187, 83.11889567244299)"/>
  <g transform="matrix(0.9999999999999999, 0, 0, 0.9999999999999999, 61.78599270457187, 83.11889567244299)"/>
  <g transform="matrix(0.9999999999999999, 0, 0, 0.9999999999999999, 61.78599270457187, 83.11889567244299)"/>
  <g transform="matrix(0.9999999999999999, 0, 0, 0.9999999999999999, 61.78599270457187, 83.11889567244299)"/>
  <g transform="matrix(0.9999999999999999, 0, 0, 0.9999999999999999, 61.78599270457187, 83.11889567244299)"/>
  <g transform="matrix(0.9999999999999999, 0, 0, 0.9999999999999999, 61.78599270457187, 83.11889567244299)"/>
  <g transform="matrix(0.9999999999999999, 0, 0, 0.9999999999999999, 61.78599270457187, 83.11889567244299)"/>
  <g transform="matrix(0.9999999999999999, 0, 0, 0.9999999999999999, 61.78599270457187, 83.11889567244299)"/>
  <g transform="matrix(0.9999999999999999, 0, 0, 0.9999999999999999, 61.78599270457187, 83.11889567244299)"/>
  <g transform="matrix(0.9999999999999999, 0, 0, 0.9999999999999999, 61.78599270457187, 83.11889567244299)"/>
  <g transform="matrix(0.9999999999999999, 0, 0, 0.9999999999999999, 61.78599270457187, 83.11889567244299)"/>
  <g transform="matrix(0.9999999999999999, 0, 0, 0.9999999999999999, 61.78599270457187, 83.11889567244299)"/>
  <g transform="matrix(0.9999999999999999, 0, 0, 0.9999999999999999, 61.78599270457187, 83.11889567244299)"/>
  <g transform="matrix(0.9999999999999999, 0, 0, 0.9999999999999999, 61.78599270457187, 83.11889567244299)"/>
  <g transform="matrix(0.9999999999999999, 0, 0, 0.9999999999999999, 61.78599270457187, 83.11889567244299)"/>
  <g transform="matrix(2.263705, 0, 0, 2.304913, 234.40274, 260.350403)">
    <path d="M22.66,0H3.34C1.498,0,0,1.498,0,3.34v19.32C0,24.502,1.498,26,3.34,26h19.32c1.842,0,3.34-1.498,3.34-3.34V3.34   C26,1.498,24.502,0,22.66,0z M24,22.66c0,0.739-0.601,1.34-1.34,1.34H3.34C2.601,24,2,23.399,2,22.66V3.34C2,2.601,2.601,2,3.34,2   h19.32C23.399,2,24,2.601,24,3.34V22.66z" fill="#FFFFFF"/>
    <path d="M52.66,0H33.34C31.498,0,30,1.498,30,3.34v19.32c0,1.842,1.498,3.34,3.34,3.34h19.32c1.842,0,3.34-1.498,3.34-3.34V3.34   C56,1.498,54.502,0,52.66,0z M54,22.66c0,0.739-0.601,1.34-1.34,1.34H33.34C32.601,24,32,23.399,32,22.66V3.34   C32,2.601,32.601,2,33.34,2h19.32C53.399,2,54,2.601,54,3.34V22.66z" fill="#FFFFFF"/>
    <path d="M22.66,30H3.34C1.498,30,0,31.498,0,33.34v19.32C0,54.502,1.498,56,3.34,56h19.32c1.842,0,3.34-1.498,3.34-3.34V33.34   C26,31.498,24.502,30,22.66,30z M24,52.66c0,0.739-0.601,1.34-1.34,1.34H3.34C2.601,54,2,53.399,2,52.66V33.34   C2,32.601,2.601,32,3.34,32h19.32c0.739,0,1.34,0.601,1.34,1.34V52.66z" fill="#FFFFFF"/>
    <path d="M55,42H44V31c0-0.553-0.447-1-1-1s-1,0.447-1,1v11H31c-0.553,0-1,0.447-1,1s0.447,1,1,1h11v11c0,0.553,0.447,1,1,1   s1-0.447,1-1V44h11c0.553,0,1-0.447,1-1S55.553,42,55,42z" fill="#FFFFFF"/>
  </g>
  <g transform="matrix(0.9999999999999999, 0, 0, 0.9999999999999999, 315.93919082734703, 298.0417897090081)"/>
  <g transform="matrix(0.9999999999999999, 0, 0, 0.9999999999999999, 315.93919082734703, 298.0417897090081)"/>
  <g transform="matrix(0.9999999999999999, 0, 0, 0.9999999999999999, 315.93919082734703, 298.0417897090081)"/>
  <g transform="matrix(0.9999999999999999, 0, 0, 0.9999999999999999, 315.93919082734703, 298.0417897090081)"/>
  <g transform="matrix(0.9999999999999999, 0, 0, 0.9999999999999999, 315.93919082734703, 298.0417897090081)"/>
  <g transform="matrix(0.9999999999999999, 0, 0, 0.9999999999999999, 315.93919082734703, 298.0417897090081)"/>
  <g transform="matrix(0.9999999999999999, 0, 0, 0.9999999999999999, 315.93919082734703, 298.0417897090081)"/>
  <g transform="matrix(0.9999999999999999, 0, 0, 0.9999999999999999, 315.93919082734703, 298.0417897090081)"/>
  <g transform="matrix(0.9999999999999999, 0, 0, 0.9999999999999999, 315.93919082734703, 298.0417897090081)"/>
  <g transform="matrix(0.9999999999999999, 0, 0, 0.9999999999999999, 315.93919082734703, 298.0417897090081)"/>
  <g transform="matrix(0.9999999999999999, 0, 0, 0.9999999999999999, 315.93919082734703, 298.0417897090081)"/>
  <g transform="matrix(0.9999999999999999, 0, 0, 0.9999999999999999, 315.93919082734703, 298.0417897090081)"/>
  <g transform="matrix(0.9999999999999999, 0, 0, 0.9999999999999999, 315.93919082734703, 298.0417897090081)"/>
  <g transform="matrix(0.9999999999999999, 0, 0, 0.9999999999999999, 315.93919082734703, 298.0417897090081)"/>
  <g transform="matrix(0.9999999999999999, 0, 0, 0.9999999999999999, 315.93919082734703, 298.0417897090081)"/>
  <g transform="matrix(0.074269, 0, 0, 0.085237, 244.240417, 336.794617)">
    <g>
      <path d="M501.801,466.153H61.144l55.608-61.873c4.883,2.589,10.446,4.062,16.348,4.062c13.586,0,25.382-7.781,31.188-19.115    l56.818,14.347c1.503,17.938,16.574,32.078,34.895,32.078c19.314,0,35.027-15.713,35.027-35.027    c0-10.651-4.784-20.201-12.31-26.63l46.335-110.741l32.997,84.143c-7.887,6.429-12.936,16.213-12.936,27.157    c0,19.314,15.714,35.027,35.028,35.027s35.027-15.713,35.027-35.027c0-3.946-0.666-7.738-1.875-11.28l40.474-40.476    c3.983-3.983,3.983-10.441,0-14.425c-3.983-3.982-10.441-3.982-14.424,0l-38.182,38.182c-5.859-4.411-13.141-7.029-21.023-7.029    c-1.082,0-2.151,0.056-3.209,0.153l-40.571-103.457l40.757-97.409c0.997,0.086,2.003,0.139,3.022,0.139    c16.219,0,29.893-11.081,33.861-26.07h64.21c5.633,0,10.199-4.567,10.199-10.199c0-5.632-4.566-10.199-10.199-10.199h-64.971    c-4.753-13.712-17.79-23.588-33.099-23.588c-19.314,0-35.028,15.713-35.028,35.028c0,11.011,5.112,20.845,13.081,27.272    l-32.53,77.746l-47.52-121.177c7.14-6.417,11.641-15.717,11.641-26.051c0-19.315-15.714-35.028-35.028-35.028    S219.73,42.399,219.73,61.714c0,8.356,2.946,16.036,7.847,22.063l-84.08,127.394c-3.644-1.288-7.561-1.996-11.64-1.996    c-4.185,0-8.199,0.74-11.922,2.092l-72.226-95.035V12.062c0-5.632-4.566-10.199-10.199-10.199S27.31,6.43,27.31,12.062v100.287    H10.199C4.566,112.348,0,116.916,0,122.548c0,5.632,4.566,10.199,10.199,10.199h17.112v102.502H10.199    C4.566,235.249,0,239.816,0,245.448c0,5.632,4.566,10.199,10.199,10.199h17.112v104.986H10.199C4.566,360.633,0,365.2,0,370.832    c0,5.632,4.566,10.199,10.199,10.199h17.112v95.321c0,5.632,4.566,10.199,10.199,10.199h87.873v13.387    c0,5.632,4.566,10.199,10.199,10.199c5.633,0,10.199-4.567,10.199-10.199v-13.387h102.502v13.387    c0,5.632,4.566,10.199,10.199,10.199s10.199-4.567,10.199-10.199v-13.387h104.984v13.387c0,5.632,4.566,10.199,10.199,10.199    s10.199-4.567,10.199-10.199v-13.387h107.735c5.633,0,10.199-4.567,10.199-10.199S507.434,466.153,501.801,466.153z     M380.143,359.926c8.065,0,14.629,6.563,14.629,14.63c0,8.065-6.563,14.629-14.629,14.629c-8.067,0-14.63-6.563-14.63-14.629    C365.513,366.489,372.076,359.926,380.143,359.926z M380.142,89.297c8.067,0,14.629,6.563,14.629,14.63    c0,8.067-6.563,14.63-14.629,14.63c-8.067,0-14.63-6.563-14.63-14.63C365.512,95.86,372.075,89.297,380.142,89.297z     M133.1,387.943c-8.067,0-14.629-6.563-14.629-14.63c0-8.066,6.563-14.629,14.629-14.629s14.629,6.563,14.629,14.629    C147.728,381.381,141.166,387.943,133.1,387.943z M256,415.254c-8.067,0-14.629-6.563-14.629-14.629    c0-8.067,6.563-14.63,14.629-14.63s14.629,6.563,14.629,14.63C270.629,408.691,264.067,415.254,256,415.254z M254.759,47.089    c8.067,0,14.63,6.563,14.63,14.63s-6.563,14.63-14.63,14.63s-14.629-6.563-14.629-14.63S246.692,47.089,254.759,47.089z     M131.857,229.578c8.068,0,14.63,6.562,14.63,14.629s-6.563,14.63-14.63,14.63s-14.629-6.563-14.629-14.63    C117.229,236.141,123.792,229.578,131.857,229.578z M47.71,149.948l55.91,73.566c-4.263,5.802-6.789,12.957-6.789,20.692    c0,19.315,15.713,35.028,35.027,35.028c19.314,0,35.028-15.713,35.028-35.028c0-7.832-2.584-15.071-6.945-20.911l84.539-128.09    c3.252,1,6.703,1.541,10.278,1.541c1.65,0,3.272-0.123,4.862-0.345l54.735,139.574l-54.336,129.86    c-1.32-0.151-2.66-0.238-4.02-0.238c-13.145,0-24.617,7.282-30.607,18.021l-57.53-14.528    c-2.093-17.328-16.88-30.805-34.764-30.805c-19.314,0-35.027,15.713-35.027,35.027c0,5.995,1.516,11.642,4.182,16.581    L47.71,450.583V149.948z" fill="#FFFFFF"/>
    </g>
  </g>
  <g transform="matrix(0.074269, 0, 0, 0.085237, 244.240417, 335.794617)">
    <g>
      <path d="M488.529,272.375c-3.983-3.983-10.441-3.983-14.424,0l-8.07,8.07c-3.983,3.984-3.983,10.441,0,14.425    c1.992,1.991,4.602,2.987,7.212,2.987c2.61,0,5.221-0.996,7.212-2.987l8.07-8.07C492.511,282.816,492.511,276.359,488.529,272.375    z" fill="#FFFFFF"/>
    </g>
  </g>
  <g transform="matrix(0.074269, 0, 0, 0.085237, 244.240417, 335.794617)"/>
  <g transform="matrix(0.074269, 0, 0, 0.085237, 244.240417, 335.794617)"/>
  <g transform="matrix(0.074269, 0, 0, 0.085237, 244.240417, 335.794617)"/>
  <g transform="matrix(0.074269, 0, 0, 0.085237, 244.240417, 335.794617)"/>
  <g transform="matrix(0.074269, 0, 0, 0.085237, 244.240417, 335.794617)"/>
  <g transform="matrix(0.074269, 0, 0, 0.085237, 244.240417, 335.794617)"/>
  <g transform="matrix(0.074269, 0, 0, 0.085237, 244.240417, 335.794617)"/>
  <g transform="matrix(0.074269, 0, 0, 0.085237, 244.240417, 335.794617)"/>
  <g transform="matrix(0.074269, 0, 0, 0.085237, 244.240417, 335.794617)"/>
  <g transform="matrix(0.074269, 0, 0, 0.085237, 244.240417, 335.794617)"/>
  <g transform="matrix(0.074269, 0, 0, 0.085237, 244.240417, 335.794617)"/>
  <g transform="matrix(0.074269, 0, 0, 0.085237, 244.240417, 335.794617)"/>
  <g transform="matrix(0.074269, 0, 0, 0.085237, 244.240417, 335.794617)"/>
  <g transform="matrix(0.074269, 0, 0, 0.085237, 244.240417, 335.794617)"/>
  <g transform="matrix(0.074269, 0, 0, 0.085237, 244.240417, 335.794617)"/>
  <g transform="matrix(0.674806, 0, 0, 0.651577, 313.022217, 272.75116)">
    <path d="M8,14c3.519,0,6.432-2.614,6.92-6H54c0.553,0,1-0.447,1-1s-0.447-1-1-1H14.92C14.432,2.614,11.519,0,8,0   C4.14,0,1,3.141,1,7S4.14,14,8,14z M8,2c2.757,0,5,2.243,5,5s-2.243,5-5,5S3,9.757,3,7S5.243,2,8,2z" fill="#FFFFFF"/>
    <path d="M48,42c-3.519,0-6.432,2.614-6.92,6H2c-0.552,0-1,0.447-1,1s0.448,1,1,1h39.08c0.488,3.386,3.401,6,6.92,6   c3.859,0,7-3.141,7-7S51.859,42,48,42z M48,54c-2.757,0-5-2.243-5-5s2.243-5,5-5s5,2.243,5,5S50.757,54,48,54z" fill="#FFFFFF"/>
    <path d="M54,27H35.368c-0.396-3.602-3.455-6.414-7.161-6.414c-3.706,0-6.765,2.813-7.161,6.414H2c-0.552,0-1,0.447-1,1s0.448,1,1,1   h19.109c0.577,3.4,3.536,6,7.098,6c3.562,0,6.52-2.6,7.097-6H54c0.553,0,1-0.447,1-1S54.553,27,54,27z M28.207,33   C25.336,33,23,30.664,23,27.793s2.336-5.207,5.207-5.207s5.207,2.336,5.207,5.207S31.078,33,28.207,33z" fill="#FFFFFF"/>
  </g>
  <g transform="matrix(0.674806, 0, 0, 0.651577, 313.022217, 272.75116)"/>
  <g transform="matrix(0.674806, 0, 0, 0.651577, 313.022217, 272.75116)"/>
  <g transform="matrix(0.674806, 0, 0, 0.651577, 313.022217, 272.75116)"/>
  <g transform="matrix(0.674806, 0, 0, 0.651577, 313.022217, 272.75116)"/>
  <g transform="matrix(0.674806, 0, 0, 0.651577, 313.022217, 272.75116)"/>
  <g transform="matrix(0.674806, 0, 0, 0.651577, 313.022217, 272.75116)"/>
  <g transform="matrix(0.674806, 0, 0, 0.651577, 313.022217, 272.75116)"/>
  <g transform="matrix(0.674806, 0, 0, 0.651577, 313.022217, 272.75116)"/>
  <g transform="matrix(0.674806, 0, 0, 0.651577, 313.022217, 272.75116)"/>
  <g transform="matrix(0.674806, 0, 0, 0.651577, 313.022217, 272.75116)"/>
  <g transform="matrix(0.674806, 0, 0, 0.651577, 313.022217, 272.75116)"/>
  <g transform="matrix(0.674806, 0, 0, 0.651577, 313.022217, 272.75116)"/>
  <g transform="matrix(0.674806, 0, 0, 0.651577, 313.022217, 272.75116)"/>
  <g transform="matrix(0.674806, 0, 0, 0.651577, 313.022217, 272.75116)"/>
  <g transform="matrix(0.674806, 0, 0, 0.651577, 313.022217, 272.75116)"/>
  <path d="M 279.849 269.999 C 277.127 269.999 274.914 272.014 274.914 274.491 C 274.914 275.266 275.13 275.995 275.511 276.633 L 267.425 283.992 C 266.311 283.202 264.915 282.727 263.397 282.727 C 261.878 282.727 260.483 283.202 259.368 283.991 L 253.059 278.249 C 253.349 277.804 253.525 277.291 253.525 276.737 C 253.525 275.086 252.05 273.743 250.235 273.743 C 248.42 273.743 246.944 275.086 246.944 276.737 C 246.944 278.389 248.42 279.732 250.235 279.732 C 250.844 279.732 251.406 279.571 251.896 279.308 L 258.204 285.05 C 257.337 286.065 256.816 287.335 256.816 288.717 C 256.816 290.099 257.337 291.369 258.204 292.383 L 247.787 301.866 C 246.91 301.142 245.751 300.696 244.477 300.696 C 241.755 300.696 239.541 302.711 239.541 305.188 C 239.541 307.666 241.755 309.681 244.477 309.681 C 247.199 309.681 249.412 307.666 249.412 305.188 C 249.412 304.414 249.196 303.684 248.815 303.047 L 259.368 293.442 C 260.278 294.086 261.376 294.517 262.575 294.654 L 262.575 302.261 C 260.245 302.619 258.462 304.464 258.462 306.686 C 258.462 309.163 260.676 311.178 263.398 311.178 C 266.12 311.178 268.333 309.163 268.333 306.686 C 268.333 304.464 266.551 302.62 264.22 302.261 L 264.22 294.654 C 265.42 294.517 266.517 294.086 267.427 293.442 L 273.736 299.184 C 273.445 299.63 273.268 300.142 273.268 300.696 C 273.268 302.348 274.744 303.691 276.559 303.691 C 278.373 303.691 279.849 302.348 279.849 300.696 C 279.849 299.045 278.373 297.701 276.559 297.701 C 275.95 297.701 275.387 297.862 274.898 298.126 L 268.589 292.384 C 269.456 291.369 269.978 290.099 269.978 288.717 C 269.978 287.335 269.456 286.065 268.589 285.05 L 276.54 277.814 C 277.416 278.538 278.575 278.984 279.849 278.984 C 282.571 278.984 284.785 276.969 284.785 274.491 C 284.785 272.014 282.571 269.999 279.849 269.999 Z M 248.59 276.737 C 248.59 275.912 249.328 275.24 250.235 275.24 C 251.142 275.24 251.88 275.912 251.88 276.737 C 251.88 277.563 251.142 278.235 250.235 278.235 C 249.328 278.235 248.59 277.563 248.59 276.737 Z M 244.477 308.183 C 242.662 308.183 241.186 306.84 241.186 305.188 C 241.186 303.537 242.662 302.194 244.477 302.194 C 246.291 302.194 247.767 303.537 247.767 305.188 C 247.767 306.84 246.291 308.183 244.477 308.183 Z M 266.687 306.686 C 266.687 308.338 265.212 309.681 263.397 309.681 C 261.582 309.681 260.106 308.338 260.106 306.686 C 260.106 305.034 261.582 303.691 263.397 303.691 C 265.212 303.691 266.687 305.034 266.687 306.686 Z M 263.397 293.209 C 260.675 293.209 258.461 291.194 258.461 288.717 C 258.461 286.239 260.675 284.225 263.397 284.225 C 266.119 284.225 268.333 286.239 268.333 288.717 C 268.333 291.194 266.119 293.209 263.397 293.209 Z M 278.204 300.696 C 278.204 301.522 277.466 302.194 276.559 302.194 C 275.651 302.194 274.914 301.522 274.914 300.696 C 274.914 299.87 275.651 299.199 276.559 299.199 C 277.466 299.199 278.204 299.87 278.204 300.696 Z M 279.849 277.486 C 278.035 277.486 276.559 276.143 276.559 274.491 C 276.559 272.84 278.035 271.496 279.849 271.496 C 281.664 271.496 283.14 272.84 283.14 274.491 C 283.14 276.143 281.664 277.486 279.849 277.486 Z" fill="#FFFFFF"/>
  <g transform="matrix(0.822621, 0, 0, 0.748713, 239.540375, 269.999237)"/>
  <g transform="matrix(0.822621, 0, 0, 0.748713, 239.540375, 269.999237)"/>
  <g transform="matrix(0.822621, 0, 0, 0.748713, 239.540375, 269.999237)"/>
  <g transform="matrix(0.822621, 0, 0, 0.748713, 239.540375, 269.999237)"/>
  <g transform="matrix(0.822621, 0, 0, 0.748713, 239.540375, 269.999237)"/>
  <g transform="matrix(0.822621, 0, 0, 0.748713, 239.540375, 269.999237)"/>
  <g transform="matrix(0.822621, 0, 0, 0.748713, 239.540375, 269.999237)"/>
  <g transform="matrix(0.822621, 0, 0, 0.748713, 239.540375, 269.999237)"/>
  <g transform="matrix(0.822621, 0, 0, 0.748713, 239.540375, 269.999237)"/>
  <g transform="matrix(0.822621, 0, 0, 0.748713, 239.540375, 269.999237)"/>
  <g transform="matrix(0.822621, 0, 0, 0.748713, 239.540375, 269.999237)"/>
  <g transform="matrix(0.822621, 0, 0, 0.748713, 239.540375, 269.999237)"/>
  <g transform="matrix(0.822621, 0, 0, 0.748713, 239.540375, 269.999237)"/>
  <g transform="matrix(0.822621, 0, 0, 0.748713, 239.540375, 269.999237)"/>
  <g transform="matrix(0.822621, 0, 0, 0.748713, 239.540375, 269.999237)"/>
  <g transform="matrix(0.318305, 0, 0, 0.251516, 549.460632, 50.532856)">
    <g>
      <path d="M263.507,62.967C265.179,51.833,272.833,40,283.729,40c11.028,0,20,8.972,20,20h40c0-33.084-26.916-60-60-60    c-33.629,0-55.527,28.691-59.784,57.073L211.083,144h-61.354v40h55.436l-39.22,265.073l-0.116,0.937    c-1.063,10.62-9.393,21.99-20.1,21.99c-11.028,0-20-8.972-20-20h-40c0,33.084,26.916,60,60,60    c33.661,0,56.771-29.141,59.848-57.496L245.6,184h60.129v-40h-54.211L263.507,62.967z" fill="#FFFFFF"/>
    </g>
  </g>
  <g transform="matrix(0.318305, 0, 0, 0.251516, 549.460632, 50.532856)">
    <g>
      <polygon points="426.271,248 378.236,248 352.249,287.085 334.923,248 291.17,248 325.997,326.569 270.523,410 318.558,410     345.21,369.915 362.979,410 406.732,410 371.462,330.431   " fill="#FFFFFF"/>
    </g>
  </g>
  <g transform="matrix(0.318305, 0, 0, 0.251516, 549.460632, 50.532856)"/>
  <g transform="matrix(0.318305, 0, 0, 0.251516, 549.460632, 50.532856)"/>
  <g transform="matrix(0.318305, 0, 0, 0.251516, 549.460632, 50.532856)"/>
  <g transform="matrix(0.318305, 0, 0, 0.251516, 549.460632, 50.532856)"/>
  <g transform="matrix(0.318305, 0, 0, 0.251516, 549.460632, 50.532856)"/>
  <g transform="matrix(0.318305, 0, 0, 0.251516, 549.460632, 50.532856)"/>
  <g transform="matrix(0.318305, 0, 0, 0.251516, 549.460632, 50.532856)"/>
  <g transform="matrix(0.318305, 0, 0, 0.251516, 549.460632, 50.532856)"/>
  <g transform="matrix(0.318305, 0, 0, 0.251516, 549.460632, 50.532856)"/>
  <g transform="matrix(0.318305, 0, 0, 0.251516, 549.460632, 50.532856)"/>
  <g transform="matrix(0.318305, 0, 0, 0.251516, 549.460632, 50.532856)"/>
  <g transform="matrix(0.318305, 0, 0, 0.251516, 549.460632, 50.532856)"/>
  <g transform="matrix(0.318305, 0, 0, 0.251516, 549.460632, 50.532856)"/>
  <g transform="matrix(0.318305, 0, 0, 0.251516, 549.460632, 50.532856)"/>
  <g transform="matrix(0.318305, 0, 0, 0.251516, 549.460632, 50.532856)"/>
</svg>